<?xml version="1.0" encoding="UTF-8" standalone="no"?> <svg width="64" height="64" viewBox="0 0 64 64" fill="none" xmlns="http://www.w3.org/2000/svg">
<path d="M48.19 2.5H15.81C14.0172 2.5 12.2978 3.21221 11.03 4.47996C9.76226 5.74771 9.05005 7.46714 9.05005 9.26V54.74C9.05005 56.5329 9.76226 58.2523 11.03 59.52C12.2978 60.7878 14.0172 61.5 15.81 61.5H48.19C49.082 61.5066 49.9664 61.3366 50.7923 60.9998C51.6183 60.6631 52.3694 60.1662 53.0024 59.5378C53.6355 58.9094 54.1379 58.162 54.4807 57.3385C54.8236 56.5151 55.0001 55.632 55 54.74V9.26C55.0001 8.36804 54.8236 7.4849 54.4807 6.66146C54.1379 5.83802 53.6355 5.09058 53.0024 4.4622C52.3694 3.83381 51.6183 3.33692 50.7923 3.00015C49.9664 2.66339 49.082 2.4934 48.19 2.5V2.5ZM52 54.74C51.9974 55.7364 51.6004 56.6912 50.8959 57.3958C50.1913 58.1004 49.2365 58.4974 48.2401 58.5H15.81C14.8136 58.4974 13.8588 58.1004 13.1542 57.3958C12.4497 56.6912 12.0527 55.7364 12.05 54.74V9.26C12.0527 8.2636 12.4497 7.30876 13.1542 6.6042C13.8588 5.89963 14.8136 5.50264 15.81 5.5H48.19C48.6876 5.49472 49.1814 5.588 49.6427 5.77447C50.1041 5.96094 50.524 6.2369 50.8782 6.58645C51.2324 6.93599 51.5139 7.3522 51.7064 7.81106C51.899 8.26993 51.9988 8.76238 52 9.26V54.74Z" fill="black"/>
<path d="M45.54 7.06006H18.47C17.2844 7.06534 16.149 7.53935 15.3115 8.37865C14.4741 9.21796 14.0026 10.3544 14 11.5401V38.6101C14.0026 39.7965 14.4758 40.9334 15.3157 41.7714C16.1556 42.6094 17.2936 43.0801 18.48 43.0801H45.54C46.7238 43.0774 47.8582 42.6053 48.6943 41.7673C49.5304 40.9293 50 39.7938 50 38.6101V11.5401C50 10.3553 49.5308 9.21886 48.6949 8.37927C47.8591 7.53968 46.7247 7.06535 45.54 7.06006V7.06006ZM47 38.6101C47 38.9999 46.8451 39.3738 46.5694 39.6495C46.2938 39.9252 45.9199 40.0801 45.53 40.0801H18.47C18.0809 40.0774 17.7086 39.9217 17.4334 39.6466C17.1583 39.3715 17.0026 38.9991 17 38.6101V19.3201H21.42V35.0601C21.42 35.4579 21.578 35.8394 21.8593 36.1207C22.1406 36.402 22.5222 36.5601 22.92 36.5601H39.73C40.127 36.5574 40.507 36.3986 40.7878 36.1178C41.0685 35.8371 41.2274 35.4571 41.23 35.0601V29.2001C41.23 28.8022 41.072 28.4207 40.7907 28.1394C40.5094 27.8581 40.1278 27.7001 39.73 27.7001H33.5V24.3701C33.5 23.9722 33.342 23.5907 33.0607 23.3094C32.7794 23.0281 32.3978 22.8701 32 22.8701C31.6022 22.8701 31.2206 23.0281 30.9393 23.3094C30.658 23.5907 30.5 23.9722 30.5 24.3701V29.2001C30.5 29.5979 30.658 29.9794 30.9393 30.2607C31.2206 30.542 31.6022 30.7001 32 30.7001H38.23V33.5601H24.41V17.8201C24.41 17.4222 24.252 17.0407 23.9707 16.7594C23.6894 16.4781 23.3078 16.3201 22.91 16.3201H17V11.5401C17.0026 11.1483 17.1594 10.7734 17.4364 10.4964C17.7134 10.2194 18.0883 10.0627 18.48 10.0601H45.54C45.929 10.0653 46.3004 10.2236 46.5736 10.5005C46.8469 10.7775 47 11.151 47 11.5401V38.6101Z" fill="black"/>
<path d="M22.9101 49.6501H21.3001V48.05C21.3001 47.6522 21.142 47.2707 20.8607 46.9894C20.5794 46.7081 20.1979 46.55 19.8001 46.55C19.4022 46.55 19.0207 46.7081 18.7394 46.9894C18.4581 47.2707 18.3001 47.6522 18.3001 48.05V49.6501H16.7001C16.3022 49.6501 15.9207 49.8081 15.6394 50.0894C15.3581 50.3707 15.2001 50.7522 15.2001 51.1501C15.2001 51.5479 15.3581 51.9294 15.6394 52.2107C15.9207 52.492 16.3022 52.6501 16.7001 52.6501H18.3001V54.26C18.3001 54.6579 18.4581 55.0394 18.7394 55.3207C19.0207 55.602 19.4022 55.76 19.8001 55.76C20.1979 55.76 20.5794 55.602 20.8607 55.3207C21.142 55.0394 21.3001 54.6579 21.3001 54.26V52.6501H22.9101C23.3079 52.6501 23.6894 52.492 23.9707 52.2107C24.252 51.9294 24.4101 51.5479 24.4101 51.1501C24.4101 50.7522 24.252 50.3707 23.9707 50.0894C23.6894 49.8081 23.3079 49.6501 22.9101 49.6501V49.6501Z" fill="black"/>
<path d="M45.3401 47.17C44.8415 47.17 44.3633 47.3681 44.0107 47.7207C43.6582 48.0733 43.4601 48.5514 43.4601 49.05C43.4601 49.5487 43.6582 50.0268 44.0107 50.3794C44.3633 50.732 44.8415 50.93 45.3401 50.93C45.8387 50.93 46.3169 50.732 46.6694 50.3794C47.022 50.0268 47.2201 49.5487 47.2201 49.05C47.2201 48.5514 47.022 48.0733 46.6694 47.7207C46.3169 47.3681 45.8387 47.17 45.3401 47.17V47.17Z" fill="black"/>
<path d="M32 16.17C31.5014 16.17 31.0232 16.3681 30.6706 16.7207C30.3181 17.0733 30.12 17.5514 30.12 18.05C30.12 18.5487 30.3181 19.0268 30.6706 19.3794C31.0232 19.732 31.5014 19.93 32 19.93C32.4986 19.93 32.9768 19.732 33.3294 19.3794C33.6819 19.0268 33.88 18.5487 33.88 18.05C33.88 17.5514 33.6819 17.0733 33.3294 16.7207C32.9768 16.3681 32.4986 16.17 32 16.17V16.17Z" fill="black"/>
<path d="M39.3401 51.17C38.8415 51.17 38.3633 51.3681 38.0107 51.7207C37.6582 52.0733 37.4601 52.5514 37.4601 53.05C37.4601 53.5487 37.6582 54.0268 38.0107 54.3794C38.3633 54.732 38.8415 54.93 39.3401 54.93C39.8387 54.93 40.3169 54.732 40.6694 54.3794C41.022 54.0268 41.2201 53.5487 41.2201 53.05C41.2201 52.5514 41.022 52.0733 40.6694 51.7207C40.3169 51.3681 39.8387 51.17 39.3401 51.17V51.17Z" fill="black"/>
</svg>
